<?xml version="1.0" standalone="no"?>
<!DOCTYPE svg PUBLIC "-//W3C//DTD SVG 20010904//EN"
 "http://www.w3.org/TR/2001/REC-SVG-20010904/DTD/svg10.dtd">
<svg version="1.0" xmlns="http://www.w3.org/2000/svg"
 width="734.000000pt" height="685.000000pt" viewBox="0 0 734.000000 685.000000"
 preserveAspectRatio="xMidYMid meet">

<g transform="translate(0.000000,685.000000) scale(0.100000,-0.100000)"
fill="#000000" stroke="none">
<path d="M0 4556 l0 -2295 38 -4 37 -4 -37 -1 -38 -2 0 -1125 0 -1125 1200 0
c660 0 1200 3 1200 6 0 4 -40 56 -88 118 -48 61 -102 129 -119 151 l-30 40 54
135 c29 74 62 146 73 158 l20 24 28 -24 c16 -12 80 -67 143 -122 135 -116 270
-214 394 -286 136 -79 202 -110 230 -110 15 0 23 -4 20 -10 -3 -5 -3 -26 1
-45 6 -36 7 -36 52 -33 45 3 46 4 57 43 13 53 20 62 52 69 93 23 288 169 316
237 7 17 6 18 83 -106 52 -85 55 -93 50 -140 -3 -27 -8 -62 -12 -77 -6 -25 -4
-28 19 -28 19 0 27 6 30 23 l4 22 2 -22 1 -23 1780 0 1780 0 0 3425 0 3425
-3670 0 -3670 0 0 -2294z m2030 2234 c8 -5 11 -10 5 -10 -5 0 -17 5 -25 10 -8
5 -10 10 -5 10 6 0 17 -5 25 -10z m-249 -97 c13 -16 12 -17 -3 -4 -10 7 -18
15 -18 17 0 8 8 3 21 -13z m919 -2363 c0 -5 -5 -10 -11 -10 -5 0 -7 5 -4 10 3
6 8 10 11 10 2 0 4 -4 4 -10z m-69 -113 c-10 -9 -11 -8 -5 6 3 10 9 15 12 12
3 -3 0 -11 -7 -18z m877 -38 c-3 -8 -7 -3 -11 10 -4 17 -3 21 5 13 5 -5 8 -16
6 -23z m-47 -46 c-12 -20 -14 -14 -5 12 4 9 9 14 11 11 3 -2 0 -13 -6 -23z
m56 -10 c-3 -10 -5 -4 -5 12 0 17 2 24 5 18 2 -7 2 -21 0 -30z m-936 -20 c-12
-20 -14 -14 -5 12 4 9 9 14 11 11 3 -2 0 -13 -6 -23z m56 -15 c-3 -8 -6 -5 -6
6 -1 11 2 17 5 13 3 -3 4 -12 1 -19z m902 -78 c-1 -66 -6 -56 -12 23 -2 32 0
52 4 45 5 -7 8 -38 8 -68z m-988 13 c-12 -20 -14 -14 -5 12 4 9 9 14 11 11 3
-2 0 -13 -6 -23z m76 -105 c-2 -24 -4 -5 -4 42 0 47 2 66 4 43 2 -24 2 -62 0
-85z m-388 50 c-1 -24 -3 -27 -6 -10 -2 12 -9 20 -14 17 -5 -3 -6 1 -3 9 11
27 24 17 23 -16z m298 10 c-3 -8 -6 -5 -6 6 -1 11 2 17 5 13 3 -3 4 -12 1 -19z
m843 -47 c-28 -56 -35 -52 -8 4 12 24 23 43 26 41 2 -2 -6 -22 -18 -45z m-853
7 c-3 -8 -6 -5 -6 6 -1 11 2 17 5 13 3 -3 4 -12 1 -19z m967 -198 c-33 -187
-79 -267 -262 -452 -86 -88 -123 -131 -119 -142 7 -17 47 -22 62 -7 13 11 115
44 121 39 2 -3 -16 -28 -41 -57 -50 -59 -52 -63 -29 -85 45 -46 283 6 397 86
27 19 27 19 27 -1 0 -26 -3 -26 62 4 72 34 91 33 81 -2 -4 -16 -8 -73 -7 -128
0 -108 22 -215 59 -301 26 -58 15 -55 215 -70 52 -4 91 -12 102 -21 15 -13 18
-12 27 5 42 78 66 419 37 530 -9 35 -16 66 -16 69 0 11 302 -7 400 -22 97 -16
263 -56 405 -99 44 -13 112 -27 150 -31 l71 -7 24 -51 c18 -37 31 -52 45 -52
18 0 20 6 18 50 -2 40 -1 45 7 27 17 -41 73 -116 117 -158 35 -33 43 -47 43
-75 -1 -55 -50 -254 -66 -268 -12 -10 -252 -86 -334 -105 -62 -14 -259 -56
-267 -56 -1 0 -3 27 -3 59 0 43 4 60 15 65 19 7 20 36 0 36 -8 0 -20 10 -26
23 -27 49 -75 61 -109 27 -11 -11 -20 -31 -20 -44 0 -27 -16 -36 -66 -36 -26
0 -32 -3 -28 -15 4 -11 21 -15 56 -15 l50 0 -6 -32 c-4 -18 -10 -135 -13 -260
l-5 -228 -142 6 c-77 3 -170 9 -206 15 -36 5 -123 13 -195 19 -283 23 -497 64
-720 138 l-110 37 -7 70 c-4 39 -11 153 -15 253 -8 176 -9 185 -32 203 -51 42
-101 13 -101 -60 0 -25 -4 -51 -8 -57 -5 -8 -35 8 -90 48 -75 55 -91 62 -175
80 -198 40 -486 42 -620 3 -32 -9 -61 -15 -63 -12 -3 3 -2 21 1 40 6 33 10 36
63 49 38 9 57 18 57 28 0 19 -46 25 -87 11 -25 -9 -36 -8 -54 4 -32 21 -48 19
-82 -10 -17 -14 -40 -25 -53 -26 -13 0 -18 -3 -11 -6 6 -2 10 -9 6 -14 -3 -5
2 -9 12 -9 15 0 16 -10 11 -92 -4 -51 -17 -136 -30 -188 l-23 -95 -64 3 c-118
6 -347 54 -515 109 -63 20 -406 181 -424 199 -2 2 6 40 18 84 12 44 21 95 19
114 -4 64 47 98 147 98 l61 0 -8 56 c-13 87 -21 268 -14 307 7 34 8 35 54 35
l47 0 1 -133 c0 -107 4 -146 23 -204 l22 -73 42 -1 c108 -1 253 -26 296 -49
42 -24 43 -24 57 -6 31 42 44 123 44 265 0 77 -5 163 -11 191 -6 28 -9 53 -7
55 7 7 311 -43 390 -64 42 -11 111 -34 153 -50 103 -42 146 -39 117 5 -11 18
-163 111 -297 182 -66 35 -113 61 -104 59 8 -3 42 15 75 40 32 24 78 58 102
75 23 18 42 35 42 40 0 4 8 8 19 8 13 0 29 -23 58 -82 22 -46 60 -107 85 -136
25 -29 48 -66 52 -83 6 -32 31 -48 48 -31 6 6 7 16 0 28 -5 11 -12 42 -15 69
-6 49 -6 49 5 12 6 -23 21 -45 37 -55 14 -9 28 -19 31 -22 3 -4 13 -10 24 -13
15 -6 17 -4 11 10 -9 21 -27 334 -20 341 2 3 7 -4 11 -14 15 -49 58 -133 66
-128 4 3 8 0 8 -6 0 -25 81 -180 124 -237 44 -57 124 -123 151 -123 7 0 18 6
24 14 9 11 4 31 -23 92 -31 71 -60 196 -39 168 20 -28 80 -48 143 -48 83 0
149 34 224 115 53 57 168 231 203 305 l17 39 4 -50 c2 -27 -4 -93 -14 -145z
m-1247 148 c-3 -7 -5 -2 -5 12 0 14 2 19 5 13 2 -7 2 -19 0 -25z m260 -45 c-3
-10 -5 -4 -5 12 0 17 2 24 5 18 2 -7 2 -21 0 -30z m130 -30 c-3 -10 -5 -2 -5
17 0 19 2 27 5 18 2 -10 2 -26 0 -35z m893 -63 l-11 -25 6 25 c2 14 6 43 7 65
l1 40 4 -40 c2 -23 -1 -52 -7 -65z m-1269 71 c7 11 9 10 9 -3 0 -22 -20 -23
-46 -2 -18 14 -18 15 5 4 19 -10 25 -9 32 1z m236 -208 c-2 -38 -3 -7 -3 67 0
74 1 105 3 68 2 -38 2 -98 0 -135z m2461 45 l-2 -113 -5 105 c-4 58 -5 108 -3
113 9 22 12 -4 10 -105z m-2298 53 c0 -32 -6 -24 -14 19 -4 25 -3 31 4 20 5
-8 10 -26 10 -39z m-413 13 c-3 -3 -12 -4 -19 -1 -8 3 -5 6 6 6 11 1 17 -2 13
-5z m-347 -34 c-8 -5 -19 -10 -25 -10 -5 0 -3 5 5 10 8 5 20 10 25 10 6 0 3
-5 -5 -10z m1617 -22 c-3 -8 -6 -5 -6 6 -1 11 2 17 5 13 3 -3 4 -12 1 -19z
m-850 -20 c-3 -8 -6 -5 -6 6 -1 11 2 17 5 13 3 -3 4 -12 1 -19z m840 -30 c-3
-7 -5 -2 -5 12 0 14 2 19 5 13 2 -7 2 -19 0 -25z m-1717 6 c0 -2 -9 -4 -20 -4
-11 0 -20 4 -20 9 0 5 9 7 20 4 11 -3 20 -7 20 -9z m87 -20 c-3 -3 -12 -4 -19
-1 -8 3 -5 6 6 6 11 1 17 -2 13 -5z m46 -11 c-7 -2 -19 -2 -25 0 -7 3 -2 5 12
5 14 0 19 -2 13 -5z m1574 -15 c-3 -8 -6 -5 -6 6 -1 11 2 17 5 13 3 -3 4 -12
1 -19z m456 -50 c14 -24 43 -64 66 -90 23 -25 41 -48 41 -50 0 -3 -19 -11 -42
-18 -41 -13 -158 -75 -240 -127 -21 -12 -40 -23 -43 -23 -3 0 16 28 41 63 47
62 134 231 134 259 0 13 9 28 16 28 1 0 13 -19 27 -42z m-996 26 c-3 -3 -12
-4 -19 -1 -8 3 -5 6 6 6 11 1 17 -2 13 -5z m2010 -36 c-3 -8 -6 -5 -6 6 -1 11
2 17 5 13 3 -3 4 -12 1 -19z m-1490 -10 c-3 -8 -6 -5 -6 6 -1 11 2 17 5 13 3
-3 4 -12 1 -19z m-16 -45 c-12 -20 -14 -14 -5 12 4 9 9 14 11 11 3 -2 0 -13
-6 -23z m1538 -53 c0 -8 -7 1 -14 20 -18 46 -17 64 0 25 8 -16 14 -37 14 -45z
m-784 32 c-3 -3 -11 0 -18 7 -9 10 -8 11 6 5 10 -3 15 -9 12 -12z m-774 -29
c-12 -20 -14 -14 -5 12 4 9 9 14 11 11 3 -2 0 -13 -6 -23z m762 0 c-7 -2 -21
-2 -30 0 -10 3 -4 5 12 5 17 0 24 -2 18 -5z m689 -28 c6 -27 -13 -34 -42 -15
-12 7 -12 12 4 29 22 24 32 21 38 -14z m-777 15 c-11 -5 -27 -9 -35 -9 -9 0
-8 4 5 9 11 5 27 9 35 9 9 0 8 -4 -5 -9z m624 -6 c10 -9 -45 -3 -59 6 -11 7
-5 8 20 4 19 -4 37 -8 39 -10z m74 -11 c-7 -2 -21 -2 -30 0 -10 3 -4 5 12 5
17 0 24 -2 18 -5z m207 -30 c0 -7 -8 -13 -17 -13 -13 0 -15 2 -5 8 7 5 10 17
6 28 -5 16 -4 16 5 4 6 -8 11 -21 11 -27z m-53 1 c-3 -3 -12 -4 -19 -1 -8 3
-5 6 6 6 11 1 17 -2 13 -5z m-3342 -84 c69 0 72 -17 5 -26 l-50 -7 0 -82 c0
-88 -14 -145 -35 -145 -8 0 -23 12 -34 26 -17 22 -23 24 -41 14 -27 -15 -50
-6 -50 19 0 19 18 31 48 31 14 0 17 12 18 75 1 52 7 83 18 101 17 24 19 25 41
10 15 -10 46 -16 80 -16z m2377 -237 c21 -48 26 -145 10 -228 -18 -96 -78 -19
-89 115 -5 65 -7 69 -31 72 -38 4 -40 28 -3 28 24 0 34 7 46 30 22 43 43 37
67 -17z m1535 15 c-3 -8 -6 -5 -6 6 -1 11 2 17 5 13 3 -3 4 -12 1 -19z m10
-55 c-3 -10 -5 -4 -5 12 0 17 2 24 5 18 2 -7 2 -21 0 -30z m-106 -40 c13 -16
12 -17 -3 -4 -10 7 -18 15 -18 17 0 8 8 3 21 -13z m116 -85 c-2 -18 -4 -4 -4
32 0 36 2 50 4 33 2 -18 2 -48 0 -65z m-5500 40 c-3 -8 -6 -5 -6 6 -1 11 2 17
5 13 3 -3 4 -12 1 -19z m5476 -5 c-7 -2 -19 -2 -25 0 -7 3 -2 5 12 5 14 0 19
-2 13 -5z m-5486 -120 c-2 -16 -4 -3 -4 27 0 30 2 43 4 28 2 -16 2 -40 0 -55z
m4047 71 c25 -10 19 -43 -9 -50 -36 -9 -55 2 -55 31 0 20 5 25 24 25 13 0 31
-3 40 -6z m-4037 -156 c-3 -7 -5 -2 -5 12 0 14 2 19 5 13 2 -7 2 -19 0 -25z
m5500 -50 c-2 -13 -4 -5 -4 17 -1 22 1 32 4 23 2 -10 2 -28 0 -40z m-2768 -83
c40 -9 88 -23 105 -32 48 -24 146 -92 197 -136 l46 -40 7 -101 c7 -101 28
-187 50 -205 20 -16 139 -59 266 -95 220 -62 361 -87 635 -112 99 -9 214 -20
255 -24 41 -5 149 -9 239 -9 l163 -1 27 29 c26 28 26 29 26 194 0 91 3 168 6
172 4 3 55 17 115 31 60 14 173 41 252 60 176 43 171 42 147 31 -49 -23 -80
-97 -40 -97 7 0 15 -9 18 -20 10 -38 92 -15 221 64 80 48 95 55 78 34 -5 -7
-33 -71 -62 -143 -98 -241 -237 -487 -305 -539 -28 -22 -35 -34 -35 -61 0 -46
28 -63 107 -67 35 -2 63 -5 63 -8 -1 -3 -19 -18 -41 -33 -26 -18 -39 -34 -37
-45 5 -26 111 -28 208 -2 96 24 97 24 77 2 -30 -32 -49 -148 -45 -259 l5 -102
-68 -50 c-210 -157 -438 -288 -627 -361 -240 -93 -602 -155 -967 -167 -170 -6
-616 7 -570 17 24 4 9 9 -68 23 -319 58 -757 246 -1087 467 -270 181 -594 508
-693 699 -80 152 -247 634 -247 709 0 8 -8 21 -17 29 -13 10 -7 9 22 -3 22 -8
63 -25 90 -36 155 -62 517 -138 658 -138 77 0 89 3 115 25 36 30 55 76 72 173
16 86 23 92 160 129 76 21 101 23 245 19 94 -3 191 -11 234 -21z m2718 -21
c-3 -3 -12 -4 -19 -1 -8 3 -5 6 6 6 11 1 17 -2 13 -5z m-4555 -34 c-2 -16 -6
-30 -8 -30 -2 0 -4 14 -4 30 0 17 4 30 8 30 5 0 7 -13 4 -30z m-21 -86 c-5
-21 -9 -30 -10 -19 -1 24 10 67 15 62 3 -2 0 -22 -5 -43z m4766 -76 c-3 -7 -5
-2 -5 12 0 14 2 19 5 13 2 -7 2 -19 0 -25z m-280 6 c-3 -3 -12 -4 -19 -1 -8 3
-5 6 6 6 11 1 17 -2 13 -5z m-4485 -114 c3 -42 2 -64 -2 -50 -8 25 -13 137 -6
129 2 -2 6 -38 8 -79z m4748 33 c-11 -17 -11 -17 -6 0 3 10 7 26 7 35 1 15 2
15 6 0 2 -10 -1 -25 -7 -35z m-350 3 c0 -2 -8 -10 -17 -17 -16 -13 -17 -12 -4
4 13 16 21 21 21 13z m337 -68 c-3 -7 -5 -2 -5 12 0 14 2 19 5 13 2 -7 2 -19
0 -25z m-13 -52 c-3 -15 -8 -25 -11 -23 -2 3 -1 17 3 31 3 15 8 25 11 23 2 -3
1 -17 -3 -31z m-4707 -58 c-2 -13 -4 -5 -4 17 -1 22 1 32 4 23 2 -10 2 -28 0
-40z m4690 0 c-3 -8 -6 -5 -6 6 -1 11 2 17 5 13 3 -3 4 -12 1 -19z m-10 -50
c-3 -7 -5 -2 -5 12 0 14 2 19 5 13 2 -7 2 -19 0 -25z m-4658 -33 l0 -20 -9 20
c-5 11 -9 29 -9 40 l0 20 9 -20 c5 -11 9 -29 9 -40z m-562 13 c-3 -8 -6 -5 -6
6 -1 11 2 17 5 13 3 -3 4 -12 1 -19z m5203 -35 c-11 -17 -11 -17 -6 0 3 10 6
24 7 30 0 9 2 9 5 0 3 -7 0 -20 -6 -30z m-4605 -121 c-4 -5 -35 97 -34 112 0
6 9 -16 20 -49 10 -32 16 -61 14 -63z m4592 66 c-3 -8 -6 -5 -6 6 -1 11 2 17
5 13 3 -3 4 -12 1 -19z m-13 -52 c-3 -15 -8 -25 -11 -23 -2 3 -1 17 3 31 3 15
8 25 11 23 2 -3 1 -17 -3 -31z m-63 -169 c-10 -9 -11 -8 -5 6 3 10 9 15 12 12
3 -3 0 -11 -7 -18z m-4357 -153 c3 -8 2 -12 -4 -9 -6 3 -10 10 -10 16 0 14 7
11 14 -7z m4471 -114 c-3 -5 -12 -10 -18 -10 -7 0 -6 4 3 10 19 12 23 12 15 0z
m62 -77 c-3 -10 -5 -4 -5 12 0 17 2 24 5 18 2 -7 2 -21 0 -30z m-5144 10 c-24
-2 -62 -2 -85 0 -24 2 -5 4 42 4 47 0 66 -2 43 -4z m758 -20 c13 -16 12 -17
-3 -4 -10 7 -18 15 -18 17 0 8 8 3 21 -13z m4372 -164 c-4 -4 -6 27 -3 69 l5
77 3 -69 c2 -38 -1 -73 -5 -77z m-4213 -14 c35 -36 62 -65 59 -65 -2 0 -34 29
-69 65 -35 36 -62 65 -59 65 2 0 34 -29 69 -65z m161 -142 c13 -16 12 -17 -3
-4 -17 13 -22 21 -14 21 2 0 10 -8 17 -17z m50 -40 c13 -16 12 -17 -3 -4 -17
13 -22 21 -14 21 2 0 10 -8 17 -17z m169 -109 c0 -7 -58 25 -65 36 -3 5 10 1
29 -11 20 -12 36 -23 36 -25z m116 -62 c-5 -4 -66 26 -66 33 0 3 16 -3 35 -12
19 -9 33 -18 31 -21z m59 -30 c-3 -3 -11 0 -18 7 -9 10 -8 11 6 5 10 -3 15 -9
12 -12z m65 -22 c8 -5 11 -10 5 -10 -5 0 -17 5 -25 10 -8 5 -10 10 -5 10 6 0
17 -5 25 -10z m95 -41 c22 -10 29 -16 15 -13 -28 7 -80 33 -65 33 6 0 28 -9
50 -20z m348 -116 c-7 -2 -19 -2 -25 0 -7 3 -2 5 12 5 14 0 19 -2 13 -5z m52
-13 c13 -6 15 -9 5 -9 -8 0 -22 4 -30 9 -18 12 -2 12 25 0z m62 -16 c-3 -3
-12 -4 -19 -1 -8 3 -5 6 6 6 11 1 17 -2 13 -5z m-167 -24 c0 -5 8 -7 18 -4 13
5 14 4 3 -4 -11 -8 -10 -12 5 -20 10 -6 16 -13 13 -16 -3 -3 -18 8 -34 24 -16
17 -23 30 -17 30 7 0 12 -4 12 -10z m297 -6 c-3 -3 -12 -4 -19 -1 -8 3 -5 6 6
6 11 1 17 -2 13 -5z m-220 -10 c-3 -3 -12 -4 -19 -1 -8 3 -5 6 6 6 11 1 17 -2
13 -5z m266 -1 c-7 -2 -19 -2 -25 0 -7 3 -2 5 12 5 14 0 19 -2 13 -5z m-226
-9 c-3 -3 -12 -4 -19 -1 -8 3 -5 6 6 6 11 1 17 -2 13 -5z m40 -10 c-3 -3 -12
-4 -19 -1 -8 3 -5 6 6 6 11 1 17 -2 13 -5z m286 -1 c-7 -2 -19 -2 -25 0 -7 3
-2 5 12 5 14 0 19 -2 13 -5z m70 -10 c-7 -2 -21 -2 -30 0 -10 3 -4 5 12 5 17
0 24 -2 18 -5z m-276 -9 c-3 -3 -12 -4 -19 -1 -8 3 -5 6 6 6 11 1 17 -2 13 -5z
m73 -14 c11 -8 7 -9 -15 -4 -37 8 -45 14 -19 14 10 0 26 -5 34 -10z m438 -7
c-16 -2 -40 -2 -55 0 -16 2 -3 4 27 4 30 0 43 -2 28 -4z m-305 -20 c-7 -2 -21
-2 -30 0 -10 3 -4 5 12 5 17 0 24 -2 18 -5z m-312 -20 c13 -16 12 -17 -3 -4
-17 13 -22 21 -14 21 2 0 10 -8 17 -17z m414 7 c14 -7 8 -8 -20 -3 -22 3 -42
7 -44 9 -9 8 45 2 64 -6z m93 -17 c-10 -2 -26 -2 -35 0 -10 3 -2 5 17 5 19 0
27 -2 18 -5z m115 -10 c-13 -2 -35 -2 -50 0 -16 2 -5 4 22 4 28 0 40 -2 28 -4z
m-572 -20 c13 -16 12 -17 -3 -4 -10 7 -18 15 -18 17 0 8 8 3 21 -13z m899 -20
c-11 -17 -11 -17 -6 0 5 14 -2 17 -42 19 l-47 1 50 6 c54 6 63 2 45 -26z
m-107 20 c-7 -2 -21 -2 -30 0 -10 3 -4 5 12 5 17 0 24 -2 18 -5z m-581 -74
c86 -19 135 -23 293 -23 105 0 227 3 272 6 62 4 80 2 76 -7 -10 -27 -169 -131
-232 -152 -45 -14 -70 -29 -78 -45 -7 -13 -13 -18 -13 -13 0 13 -57 35 -88 35
-36 0 -385 205 -406 239 -3 5 12 3 33 -5 22 -7 86 -23 143 -35z m309 -282 c-8
-8 -11 -7 -11 4 0 20 13 34 18 19 3 -7 -1 -17 -7 -23z"/>
<path d="M2297 2161 c-9 -16 -17 -49 -17 -74 0 -64 24 -90 105 -112 57 -15 75
-16 118 -6 67 15 81 24 73 47 -5 16 -79 71 -148 110 -10 6 -32 23 -47 38 -35
34 -62 33 -84 -3z"/>
<path d="M2234 1495 c-10 -24 37 -63 96 -81 30 -9 91 -30 135 -47 44 -16 103
-35 130 -42 28 -7 67 -20 88 -29 21 -9 37 -12 37 -6 0 6 14 4 35 -5 31 -12 37
-12 41 0 9 22 0 30 -98 91 -157 97 -262 134 -381 134 -60 0 -79 -3 -83 -15z
m186 -45 c11 -7 5 -8 -20 -4 -43 8 -51 14 -19 14 13 0 31 -5 39 -10z m47 -16
c-3 -3 -12 -4 -19 -1 -8 3 -5 6 6 6 11 1 17 -2 13 -5z"/>
<path d="M3260 73 c0 -39 26 -73 56 -73 29 0 30 5 1 55 -28 50 -57 59 -57 18z"/>
<path d="M2975 40 l-39 -40 36 0 c28 0 42 7 58 27 11 14 19 31 17 37 -8 24
-34 15 -72 -24z"/>
</g>
</svg>
